<svg width="296" height="155" viewBox="0 0 296 155" fill="none" xmlns="http://www.w3.org/2000/svg">
  <path d="M270.933 63.0947C273.209 69.9239 272.439 78.2424 271.433 85.2884C270.748 90.0834 268.742 94.8231 266.74 99.1979C264.696 103.662 262.325 107.912 260.092 112.278C258.46 115.468 255.962 118.092 254.148 121.176C253.281 122.65 251.714 123.81 250.569 125.073C249.234 126.546 247.508 127.829 245.875 128.949C241.148 132.19 236.849 135.104 231.398 137.051C228.444 138.106 225.619 139.247 222.75 140.517C220.157 141.665 217.491 142.096 214.784 142.869C211.678 143.757 208.563 144.683 205.374 145.222C201.98 145.795 198.644 146.857 195.181 146.949C187.205 147.162 179.079 147.194 171.135 146.449C166.557 146.02 162.002 145.639 157.407 145.426C152.698 145.208 148.14 144.508 143.464 143.983C134.634 142.992 126.047 141.525 117.316 139.903C99.166 136.533 80.737 133.803 62.2915 132.949C47.8285 132.279 33.024 133.433 19.3132 138.369C15.2198 139.843 11.1895 141.968 8.65387 145.574C7.46441 147.266 5.60138 150.85 7.83567 152.483C9.32505 153.572 11.0939 152.865 12.5858 152.12C14.2774 151.274 16.2729 150.683 17.6995 149.415C20.2035 147.189 21.2378 144.707 22.6087 141.642C23.0935 140.559 23.1286 139.26 23.4269 138.119C23.9673 136.053 24.3021 133.901 24.4952 131.778C24.9459 126.82 23.9251 121.844 23.2224 116.96C21.8818 107.642 19.5321 98.4037 17.8132 89.1408C15.8006 78.2954 14.6191 67.3584 15.4495 56.3446C16.2509 45.7159 19.381 35.8404 25.2452 26.9121C27.9937 22.7273 30.8505 18.443 34.4045 14.889C37.5949 11.6986 41.3811 9.13343 45.1547 6.6843C48.4358 4.55489 51.7621 2.44562 55.7459 2.0251C60.1735 1.55774 64.3749 2.41876 68.3371 4.3888C70.1414 5.28592 72.1896 6.23655 73.7009 7.59342C75.7336 9.4184 76.9831 12.2065 78.1101 14.639C79.0859 16.7453 80.015 18.928 80.7919 21.1165C81.8782 24.1764 82.0904 27.1547 82.3374 30.3667" stroke="black" stroke-width="3" stroke-linecap="round"/>
  <path d="M126.075 106.886C130.647 110.949 139.014 109.149 143.831 106.527C147.42 104.574 149.71 103.03 150.504 98.825C151.275 94.7379 151.278 90.876 147.268 88.6484C140.89 85.1048 131.448 85.8225 125.213 89.2866C116.925 93.8909 112.218 106.621 115.708 115.529C117.422 119.901 121.377 123.834 124.956 126.746C129.165 130.172 133.97 131.866 139.42 131.247C145.21 130.589 150.652 128.087 155.765 125.425C160.937 122.733 164.782 119.558 167.991 114.745" stroke="black" stroke-width="3" stroke-linecap="round"/>
  <path d="M188.747 76.2551C187.935 77.7976 187.669 79.3767 187.437 81.1139C186.522 87.9542 186.447 94.8723 186.956 101.747C187.534 109.556 188.723 117.036 191.747 124.261C192.851 126.898 191.157 122.769 190.964 122.167C188.085 113.213 187.269 102.249 190.762 93.3281C193.937 85.2204 201.144 79.6529 208.406 75.3371C208.574 75.2374 211.717 73.3346 211.877 73.7698C212.134 74.4708 212.103 75.4198 212.257 76.1432C213.023 79.7247 214.237 83.1229 215.84 86.4205C220.509 96.0245 227.386 104.027 236.529 109.707C241.484 112.785 247.129 114.787 253.031 114.521C259.062 114.249 264.864 111.732 269.869 108.498C280.843 101.407 288.661 90.5809 292.192 78.0464C293.675 72.7825 294.514 67.0996 293.379 61.6788C292.78 58.8189 291.465 56.9983 289.908 54.6928" stroke="black" stroke-width="3" stroke-linecap="round"/>
  <path d="M121.853 40.421C121.924 40.3501 122.709 39.45 122.688 39.9318C122.666 40.4204 122.265 41.4635 122.184 41.7014C120.948 45.3494 119.669 48.9847 118.4 52.6211C111.993 70.9798 106.628 90.3627 97.122 107.435C97.104 107.468 92.2826 115.701 91.4536 114.744C90.3681 113.491 90.63 109.256 90.4609 107.809C89.6624 100.978 88.504 94.2139 87.5259 87.4087C86.7252 81.8372 86.3682 76.1073 85.3391 70.576C85.1486 69.5518 85.3247 68.4524 84.145 68.1446C80.5858 67.2161 75.7799 68.6879 72.3909 69.5114C62.918 71.813 54.1931 75.886 45.8757 80.9202C30.1191 90.4571 14.4789 101.979 2.21135 115.78" stroke="black" stroke-width="3" stroke-linecap="round"/>
</svg>
